<svg width="296" height="106" viewBox="0 0 296 106" fill="none" xmlns="http://www.w3.org/2000/svg">
<path fill-rule="evenodd" clip-rule="evenodd" d="M291 24C291 15.5992 291 11.3988 289.365 8.19014C287.927 5.36771 285.632 3.073 282.81 1.6349C279.601 0 275.401 0 267 0H24C15.5992 0 11.3988 0 8.19016 1.6349C5.36773 3.073 3.07302 5.36771 1.63492 8.19014C1.52588e-05 11.3988 1.52588e-05 15.5992 1.52588e-05 24V82C1.52588e-05 90.4008 1.52588e-05 94.6012 1.63492 97.8099C3.07302 100.632 5.36773 102.927 8.19016 104.365C11.3988 106 15.5992 106 24 106H267C275.401 106 279.601 106 282.81 104.365C285.632 102.927 287.927 100.632 289.365 97.8099C291 94.6012 291 90.4008 291 82V24Z" fill="#FA4A0C"/>
<path fill-rule="evenodd" clip-rule="evenodd" d="M291.029 92H276C276 99.732 282.268 106 290 106H296V105.671C294.569 104.47 293.384 102.987 292.526 101.303C291.404 99.1003 291.107 96.3966 291.029 92Z" fill="#FA4A0C"/>
<path d="M23.01 18.628H17.009V24H15.581V12.134H17.009V17.37H23.01V12.134H24.438V24H23.01V18.628ZM30.7625 24.204C30.1619 24.204 29.6179 24.0963 29.1305 23.881C28.6545 23.6657 28.2409 23.3597 27.8895 22.963C27.5495 22.555 27.2832 22.0733 27.0905 21.518C26.9092 20.9513 26.8185 20.3167 26.8185 19.614C26.8185 18.9227 26.9092 18.2937 27.0905 17.727C27.2832 17.1603 27.5495 16.6787 27.8895 16.282C28.2409 15.874 28.6545 15.5623 29.1305 15.347C29.6179 15.1317 30.1619 15.024 30.7625 15.024C31.3519 15.024 31.8789 15.1317 32.3435 15.347C32.8082 15.5623 33.2049 15.8627 33.5335 16.248C33.8622 16.622 34.1115 17.0697 34.2815 17.591C34.4629 18.1123 34.5535 18.6847 34.5535 19.308V19.954H28.2465V20.362C28.2465 20.736 28.3032 21.0873 28.4165 21.416C28.5412 21.7333 28.7112 22.011 28.9265 22.249C29.1532 22.487 29.4252 22.674 29.7425 22.81C30.0712 22.946 30.4395 23.014 30.8475 23.014C31.4029 23.014 31.8845 22.8837 32.2925 22.623C32.7119 22.3623 33.0349 21.9883 33.2615 21.501L34.2305 22.198C33.9472 22.7987 33.5052 23.286 32.9045 23.66C32.3039 24.0227 31.5899 24.204 30.7625 24.204ZM30.7625 16.163C30.3885 16.163 30.0485 16.231 29.7425 16.367C29.4365 16.4917 29.1702 16.673 28.9435 16.911C28.7282 17.149 28.5582 17.4323 28.4335 17.761C28.3089 18.0783 28.2465 18.4297 28.2465 18.815V18.934H33.0915V18.747C33.0915 17.965 32.8762 17.3417 32.4455 16.877C32.0262 16.401 31.4652 16.163 30.7625 16.163ZM38.2396 24C37.7636 24 37.4009 23.8697 37.1516 23.609C36.9136 23.337 36.7946 22.997 36.7946 22.589V11.42H38.1546V22.81H39.4466V24H38.2396ZM42.7884 24C42.3124 24 41.9498 23.8697 41.7004 23.609C41.4624 23.337 41.3434 22.997 41.3434 22.589V11.42H42.7034V22.81H43.9954V24H42.7884ZM49.2903 24.204C48.7009 24.204 48.1626 24.0963 47.6753 23.881C47.1879 23.6657 46.7686 23.3597 46.4173 22.963C46.0773 22.555 45.8109 22.0733 45.6183 21.518C45.4256 20.9513 45.3293 20.3167 45.3293 19.614C45.3293 18.9227 45.4256 18.2937 45.6183 17.727C45.8109 17.1603 46.0773 16.6787 46.4173 16.282C46.7686 15.874 47.1879 15.5623 47.6753 15.347C48.1626 15.1317 48.7009 15.024 49.2903 15.024C49.8796 15.024 50.4123 15.1317 50.8883 15.347C51.3756 15.5623 51.7949 15.874 52.1463 16.282C52.4976 16.6787 52.7696 17.1603 52.9623 17.727C53.1549 18.2937 53.2513 18.9227 53.2513 19.614C53.2513 20.3167 53.1549 20.9513 52.9623 21.518C52.7696 22.0733 52.4976 22.555 52.1463 22.963C51.7949 23.3597 51.3756 23.6657 50.8883 23.881C50.4123 24.0963 49.8796 24.204 49.2903 24.204ZM49.2903 22.997C50.0269 22.997 50.6276 22.7703 51.0923 22.317C51.5569 21.8637 51.7893 21.1723 51.7893 20.243V18.985C51.7893 18.0557 51.5569 17.3643 51.0923 16.911C50.6276 16.4577 50.0269 16.231 49.2903 16.231C48.5536 16.231 47.9529 16.4577 47.4883 16.911C47.0236 17.3643 46.7913 18.0557 46.7913 18.985V20.243C46.7913 21.1723 47.0236 21.8637 47.4883 22.317C47.9529 22.7703 48.5536 22.997 49.2903 22.997ZM56.117 20.855L55.709 15.585V12.134H57.205V15.585L56.797 20.855H56.117ZM56.457 24.204C56.0943 24.204 55.828 24.1133 55.658 23.932C55.4993 23.7507 55.42 23.5127 55.42 23.218V22.997C55.42 22.7023 55.4993 22.4643 55.658 22.283C55.828 22.1017 56.0943 22.011 56.457 22.011C56.8196 22.011 57.0803 22.1017 57.239 22.283C57.409 22.4643 57.494 22.7023 57.494 22.997V23.218C57.494 23.5127 57.409 23.7507 57.239 23.932C57.0803 24.1133 56.8196 24.204 56.457 24.204ZM63.9116 24V22.81H65.5776V13.324H63.9116V12.134H68.6716V13.324H67.0056V22.81H68.6716V24H63.9116ZM71.1432 16.18V11.42H72.3672V16.18H71.1432ZM75.2604 24V15.228H76.6204V16.656H76.6884C76.7904 16.4293 76.9038 16.2197 77.0284 16.027C77.1644 15.823 77.3231 15.6473 77.5044 15.5C77.6971 15.3527 77.9181 15.2393 78.1674 15.16C78.4168 15.0693 78.7114 15.024 79.0514 15.024C79.6294 15.024 80.1621 15.1657 80.6494 15.449C81.1368 15.721 81.4994 16.1743 81.7374 16.809H81.7714C81.9301 16.333 82.2248 15.9193 82.6554 15.568C83.0974 15.2053 83.6924 15.024 84.4404 15.024C85.3358 15.024 86.0328 15.3187 86.5314 15.908C87.0414 16.486 87.2964 17.3077 87.2964 18.373V24H85.9364V18.611C85.9364 17.829 85.7834 17.2397 85.4774 16.843C85.1714 16.4463 84.6841 16.248 84.0154 16.248C83.7434 16.248 83.4828 16.282 83.2334 16.35C82.9954 16.418 82.7801 16.52 82.5874 16.656C82.3948 16.792 82.2418 16.9677 82.1284 17.183C82.0151 17.387 81.9584 17.6307 81.9584 17.914V24H80.5984V18.611C80.5984 17.829 80.4454 17.2397 80.1394 16.843C79.8334 16.4463 79.3574 16.248 78.7114 16.248C78.4394 16.248 78.1788 16.282 77.9294 16.35C77.6801 16.418 77.4591 16.52 77.2664 16.656C77.0738 16.792 76.9151 16.9677 76.7904 17.183C76.6771 17.387 76.6204 17.6307 76.6204 17.914V24H75.2604ZM101.685 24L100.495 20.498H95.7008L94.5108 24H93.0658L97.2138 12.134H99.0328L103.181 24H101.685ZM98.1318 13.46H98.0468L96.0408 19.24H100.138L98.1318 13.46ZM105.01 24V15.228H106.37V16.843H106.455C106.614 16.4237 106.897 16.0497 107.305 15.721C107.713 15.3923 108.274 15.228 108.988 15.228H109.515V16.588H108.716C107.98 16.588 107.402 16.7297 106.982 17.013C106.574 17.285 106.37 17.6307 106.37 18.05V24H105.01ZM113.257 24C112.781 24 112.418 23.8697 112.169 23.609C111.931 23.337 111.812 22.9857 111.812 22.555V16.418H110.367V15.228H111.183C111.478 15.228 111.676 15.1713 111.778 15.058C111.891 14.9333 111.948 14.7237 111.948 14.429V12.797H113.172V15.228H115.093V16.418H113.172V22.81H114.957V24H113.257ZM117.279 11.42H118.639V16.656H118.707C118.922 16.1573 119.223 15.7607 119.608 15.466C120.005 15.1713 120.532 15.024 121.189 15.024C122.096 15.024 122.81 15.3187 123.331 15.908C123.864 16.486 124.13 17.3077 124.13 18.373V24H122.77V18.611C122.77 17.0357 122.107 16.248 120.781 16.248C120.509 16.248 120.243 16.282 119.982 16.35C119.733 16.418 119.506 16.52 119.302 16.656C119.098 16.792 118.934 16.9677 118.809 17.183C118.696 17.387 118.639 17.6307 118.639 17.914V24H117.279V11.42ZM127.808 22.011C128.171 22.011 128.431 22.1073 128.59 22.3C128.76 22.4813 128.845 22.7193 128.845 23.014V23.252C128.845 23.7167 128.709 24.2267 128.437 24.782C128.165 25.3487 127.785 25.8417 127.298 26.261H126.159C126.499 25.8983 126.771 25.5527 126.975 25.224C127.19 24.9067 127.343 24.5497 127.434 24.153C127.207 24.0963 127.037 23.9887 126.924 23.83C126.822 23.6713 126.771 23.4787 126.771 23.252V23.014C126.771 22.7193 126.85 22.4813 127.009 22.3C127.179 22.1073 127.445 22.011 127.808 22.011ZM141.966 24C141.456 24 141.087 23.864 140.861 23.592C140.645 23.32 140.509 22.98 140.453 22.572H140.368C140.175 23.116 139.858 23.524 139.416 23.796C138.974 24.068 138.447 24.204 137.835 24.204C136.905 24.204 136.18 23.966 135.659 23.49C135.149 23.014 134.894 22.368 134.894 21.552C134.894 20.7247 135.194 20.09 135.795 19.648C136.407 19.206 137.353 18.985 138.634 18.985H140.368V18.118C140.368 17.4947 140.198 17.0187 139.858 16.69C139.518 16.3613 138.996 16.197 138.294 16.197C137.761 16.197 137.313 16.316 136.951 16.554C136.599 16.792 136.305 17.1093 136.067 17.506L135.251 16.741C135.489 16.265 135.868 15.8627 136.39 15.534C136.911 15.194 137.568 15.024 138.362 15.024C139.427 15.024 140.254 15.2847 140.844 15.806C141.433 16.3273 141.728 17.0527 141.728 17.982V22.81H142.731V24H141.966ZM138.056 23.048C138.396 23.048 138.707 23.0083 138.991 22.929C139.274 22.8497 139.518 22.7363 139.722 22.589C139.926 22.4417 140.084 22.2717 140.198 22.079C140.311 21.8863 140.368 21.6767 140.368 21.45V20.005H138.566C137.784 20.005 137.211 20.1183 136.849 20.345C136.497 20.5717 136.322 20.9003 136.322 21.331V21.688C136.322 22.1187 136.475 22.453 136.781 22.691C137.098 22.929 137.523 23.048 138.056 23.048ZM151.324 24.204C150.508 24.204 149.822 24.051 149.267 23.745C148.723 23.4277 148.253 23.0083 147.856 22.487L148.825 21.705C149.165 22.1357 149.545 22.47 149.964 22.708C150.383 22.9347 150.871 23.048 151.426 23.048C152.004 23.048 152.452 22.9233 152.769 22.674C153.098 22.4247 153.262 22.0733 153.262 21.62C153.262 21.28 153.149 20.991 152.922 20.753C152.707 20.5037 152.31 20.3337 151.732 20.243L151.035 20.141C150.627 20.0843 150.253 19.9993 149.913 19.886C149.573 19.7613 149.273 19.6027 149.012 19.41C148.763 19.206 148.564 18.9567 148.417 18.662C148.281 18.3673 148.213 18.016 148.213 17.608C148.213 17.1773 148.292 16.8033 148.451 16.486C148.61 16.1573 148.825 15.8853 149.097 15.67C149.38 15.4547 149.715 15.296 150.1 15.194C150.485 15.0807 150.899 15.024 151.341 15.024C152.055 15.024 152.65 15.1487 153.126 15.398C153.613 15.6473 154.038 15.993 154.401 16.435L153.5 17.251C153.307 16.979 153.024 16.7353 152.65 16.52C152.276 16.2933 151.806 16.18 151.239 16.18C150.672 16.18 150.242 16.3047 149.947 16.554C149.664 16.792 149.522 17.1207 149.522 17.54C149.522 17.9707 149.664 18.2823 149.947 18.475C150.242 18.6677 150.661 18.8093 151.205 18.9L151.885 19.002C152.86 19.1493 153.551 19.4327 153.959 19.852C154.367 20.26 154.571 20.7983 154.571 21.467C154.571 22.317 154.282 22.9857 153.704 23.473C153.126 23.9603 152.333 24.204 151.324 24.204ZM160.288 24.204C159.699 24.204 159.161 24.0963 158.673 23.881C158.186 23.6657 157.767 23.3597 157.415 22.963C157.075 22.555 156.809 22.0733 156.616 21.518C156.424 20.9513 156.327 20.3167 156.327 19.614C156.327 18.9227 156.424 18.2937 156.616 17.727C156.809 17.1603 157.075 16.6787 157.415 16.282C157.767 15.874 158.186 15.5623 158.673 15.347C159.161 15.1317 159.699 15.024 160.288 15.024C160.878 15.024 161.41 15.1317 161.886 15.347C162.374 15.5623 162.793 15.874 163.144 16.282C163.496 16.6787 163.768 17.1603 163.96 17.727C164.153 18.2937 164.249 18.9227 164.249 19.614C164.249 20.3167 164.153 20.9513 163.96 21.518C163.768 22.0733 163.496 22.555 163.144 22.963C162.793 23.3597 162.374 23.6657 161.886 23.881C161.41 24.0963 160.878 24.204 160.288 24.204ZM160.288 22.997C161.025 22.997 161.626 22.7703 162.09 22.317C162.555 21.8637 162.787 21.1723 162.787 20.243V18.985C162.787 18.0557 162.555 17.3643 162.09 16.911C161.626 16.4577 161.025 16.231 160.288 16.231C159.552 16.231 158.951 16.4577 158.486 16.911C158.022 17.3643 157.789 18.0557 157.789 18.985V20.243C157.789 21.1723 158.022 21.8637 158.486 22.317C158.951 22.7703 159.552 22.997 160.288 22.997ZM166.862 16.418H165.434V15.228H166.862V13.46C166.862 12.848 167.021 12.355 167.338 11.981C167.656 11.607 168.137 11.42 168.783 11.42H170.109V12.61H168.222V15.228H170.109V16.418H168.222V24H166.862V16.418ZM173.836 24C173.36 24 172.997 23.8697 172.748 23.609C172.51 23.337 172.391 22.9857 172.391 22.555V16.418H170.946V15.228H171.762C172.057 15.228 172.255 15.1713 172.357 15.058C172.47 14.9333 172.527 14.7237 172.527 14.429V12.797H173.751V15.228H175.672V16.418H173.751V22.81H175.536V24H173.836ZM176.94 15.228H178.266L179.201 19.019L180.136 22.861H180.17L181.241 19.019L182.346 15.228H183.553L184.692 19.019L185.78 22.861H185.814L186.715 19.019L187.667 15.228H188.942L186.613 24H184.93L183.706 19.784L182.941 17.115H182.907L182.159 19.784L180.935 24H179.286L176.94 15.228ZM197.133 24C196.623 24 196.254 23.864 196.028 23.592C195.812 23.32 195.676 22.98 195.62 22.572H195.535C195.342 23.116 195.025 23.524 194.583 23.796C194.141 24.068 193.614 24.204 193.002 24.204C192.072 24.204 191.347 23.966 190.826 23.49C190.316 23.014 190.061 22.368 190.061 21.552C190.061 20.7247 190.361 20.09 190.962 19.648C191.574 19.206 192.52 18.985 193.8 18.985H195.535V18.118C195.535 17.4947 195.365 17.0187 195.025 16.69C194.685 16.3613 194.163 16.197 193.461 16.197C192.928 16.197 192.48 16.316 192.118 16.554C191.766 16.792 191.472 17.1093 191.234 17.506L190.418 16.741C190.656 16.265 191.035 15.8627 191.556 15.534C192.078 15.194 192.735 15.024 193.529 15.024C194.594 15.024 195.421 15.2847 196.011 15.806C196.6 16.3273 196.895 17.0527 196.895 17.982V22.81H197.897V24H197.133ZM193.223 23.048C193.563 23.048 193.874 23.0083 194.158 22.929C194.441 22.8497 194.685 22.7363 194.889 22.589C195.093 22.4417 195.251 22.2717 195.365 22.079C195.478 21.8863 195.535 21.6767 195.535 21.45V20.005H193.733C192.951 20.005 192.378 20.1183 192.016 20.345C191.664 20.5717 191.489 20.9003 191.489 21.331V21.688C191.489 22.1187 191.642 22.453 191.948 22.691C192.265 22.929 192.69 23.048 193.223 23.048ZM199.839 24V15.228H201.199V16.843H201.284C201.442 16.4237 201.726 16.0497 202.134 15.721C202.542 15.3923 203.103 15.228 203.817 15.228H204.344V16.588H203.545C202.808 16.588 202.23 16.7297 201.811 17.013C201.403 17.285 201.199 17.6307 201.199 18.05V24H199.839ZM209.296 24.204C208.695 24.204 208.151 24.0963 207.664 23.881C207.188 23.6657 206.774 23.3597 206.423 22.963C206.083 22.555 205.816 22.0733 205.624 21.518C205.442 20.9513 205.352 20.3167 205.352 19.614C205.352 18.9227 205.442 18.2937 205.624 17.727C205.816 17.1603 206.083 16.6787 206.423 16.282C206.774 15.874 207.188 15.5623 207.664 15.347C208.151 15.1317 208.695 15.024 209.296 15.024C209.885 15.024 210.412 15.1317 210.877 15.347C211.341 15.5623 211.738 15.8627 212.067 16.248C212.395 16.622 212.645 17.0697 212.815 17.591C212.996 18.1123 213.087 18.6847 213.087 19.308V19.954H206.78V20.362C206.78 20.736 206.836 21.0873 206.95 21.416C207.074 21.7333 207.244 22.011 207.46 22.249C207.686 22.487 207.958 22.674 208.276 22.81C208.604 22.946 208.973 23.014 209.381 23.014C209.936 23.014 210.418 22.8837 210.826 22.623C211.245 22.3623 211.568 21.9883 211.795 21.501L212.764 22.198C212.48 22.7987 212.038 23.286 211.438 23.66C210.837 24.0227 210.123 24.204 209.296 24.204ZM209.296 16.163C208.922 16.163 208.582 16.231 208.276 16.367C207.97 16.4917 207.703 16.673 207.477 16.911C207.261 17.149 207.091 17.4323 206.967 17.761C206.842 18.0783 206.78 18.4297 206.78 18.815V18.934H211.625V18.747C211.625 17.965 211.409 17.3417 210.979 16.877C210.559 16.401 209.998 16.163 209.296 16.163ZM21.055 44.572H20.987C20.4543 45.66 19.5987 46.204 18.42 46.204C17.876 46.204 17.383 46.0963 16.941 45.881C16.499 45.6657 16.1193 45.3597 15.802 44.963C15.496 44.5663 15.258 44.0847 15.088 43.518C14.9293 42.9513 14.85 42.3167 14.85 41.614C14.85 40.9113 14.9293 40.2767 15.088 39.71C15.258 39.1433 15.496 38.6617 15.802 38.265C16.1193 37.8683 16.499 37.5623 16.941 37.347C17.383 37.1317 17.876 37.024 18.42 37.024C19.032 37.024 19.5533 37.16 19.984 37.432C20.426 37.6927 20.7603 38.1007 20.987 38.656H21.055V33.42H22.415V46H21.055V44.572ZM18.794 44.98C19.1 44.98 19.389 44.9403 19.661 44.861C19.9443 44.7817 20.188 44.6683 20.392 44.521C20.596 44.3623 20.7547 44.1753 20.868 43.96C20.9927 43.7333 21.055 43.4783 21.055 43.195V39.931C21.055 39.693 20.9927 39.472 20.868 39.268C20.7547 39.0527 20.596 38.8713 20.392 38.724C20.188 38.5767 19.9443 38.4633 19.661 38.384C19.389 38.2933 19.1 38.248 18.794 38.248C18.0233 38.248 17.417 38.4917 16.975 38.979C16.533 39.455 16.312 40.084 16.312 40.866V42.362C16.312 43.144 16.533 43.7787 16.975 44.266C17.417 44.742 18.0233 44.98 18.794 44.98ZM28.6043 46.204C28.0037 46.204 27.4597 46.0963 26.9723 45.881C26.4963 45.6657 26.0827 45.3597 25.7313 44.963C25.3913 44.555 25.125 44.0733 24.9323 43.518C24.751 42.9513 24.6603 42.3167 24.6603 41.614C24.6603 40.9227 24.751 40.2937 24.9323 39.727C25.125 39.1603 25.3913 38.6787 25.7313 38.282C26.0827 37.874 26.4963 37.5623 26.9723 37.347C27.4597 37.1317 28.0037 37.024 28.6043 37.024C29.1937 37.024 29.7207 37.1317 30.1853 37.347C30.65 37.5623 31.0467 37.8627 31.3753 38.248C31.704 38.622 31.9533 39.0697 32.1233 39.591C32.3047 40.1123 32.3953 40.6847 32.3953 41.308V41.954H26.0883V42.362C26.0883 42.736 26.145 43.0873 26.2583 43.416C26.383 43.7333 26.553 44.011 26.7683 44.249C26.995 44.487 27.267 44.674 27.5843 44.81C27.913 44.946 28.2813 45.014 28.6893 45.014C29.2447 45.014 29.7263 44.8837 30.1343 44.623C30.5537 44.3623 30.8767 43.9883 31.1033 43.501L32.0723 44.198C31.789 44.7987 31.347 45.286 30.7463 45.66C30.1457 46.0227 29.4317 46.204 28.6043 46.204ZM28.6043 38.163C28.2303 38.163 27.8903 38.231 27.5843 38.367C27.2783 38.4917 27.012 38.673 26.7853 38.911C26.57 39.149 26.4 39.4323 26.2753 39.761C26.1507 40.0783 26.0883 40.4297 26.0883 40.815V40.934H30.9333V40.747C30.9333 39.965 30.718 39.3417 30.2873 38.877C29.868 38.401 29.307 38.163 28.6043 38.163ZM36.4416 46L33.3646 37.228H34.7246L36.2546 41.58L37.2066 44.572H37.2916L38.2436 41.58L39.8076 37.228H41.1166L38.0226 46H36.4416ZM46.036 46.204C45.4353 46.204 44.8913 46.0963 44.404 45.881C43.928 45.6657 43.5143 45.3597 43.163 44.963C42.823 44.555 42.5566 44.0733 42.364 43.518C42.1826 42.9513 42.092 42.3167 42.092 41.614C42.092 40.9227 42.1826 40.2937 42.364 39.727C42.5566 39.1603 42.823 38.6787 43.163 38.282C43.5143 37.874 43.928 37.5623 44.404 37.347C44.8913 37.1317 45.4353 37.024 46.036 37.024C46.6253 37.024 47.1523 37.1317 47.617 37.347C48.0816 37.5623 48.4783 37.8627 48.807 38.248C49.1356 38.622 49.385 39.0697 49.555 39.591C49.7363 40.1123 49.827 40.6847 49.827 41.308V41.954H43.52V42.362C43.52 42.736 43.5766 43.0873 43.69 43.416C43.8146 43.7333 43.9846 44.011 44.2 44.249C44.4266 44.487 44.6986 44.674 45.016 44.81C45.3446 44.946 45.713 45.014 46.121 45.014C46.6763 45.014 47.158 44.8837 47.566 44.623C47.9853 44.3623 48.3083 43.9883 48.535 43.501L49.504 44.198C49.2206 44.7987 48.7786 45.286 48.178 45.66C47.5773 46.0227 46.8633 46.204 46.036 46.204ZM46.036 38.163C45.662 38.163 45.322 38.231 45.016 38.367C44.71 38.4917 44.4436 38.673 44.217 38.911C44.0016 39.149 43.8316 39.4323 43.707 39.761C43.5823 40.0783 43.52 40.4297 43.52 40.815V40.934H48.365V40.747C48.365 39.965 48.1496 39.3417 47.719 38.877C47.2996 38.401 46.7386 38.163 46.036 38.163ZM53.513 46C53.037 46 52.6744 45.8697 52.425 45.609C52.187 45.337 52.068 44.997 52.068 44.589V33.42H53.428V44.81H54.72V46H53.513ZM60.0149 46.204C59.4255 46.204 58.8872 46.0963 58.3999 45.881C57.9125 45.6657 57.4932 45.3597 57.1419 44.963C56.8019 44.555 56.5355 44.0733 56.3429 43.518C56.1502 42.9513 56.0539 42.3167 56.0539 41.614C56.0539 40.9227 56.1502 40.2937 56.3429 39.727C56.5355 39.1603 56.8019 38.6787 57.1419 38.282C57.4932 37.874 57.9125 37.5623 58.3999 37.347C58.8872 37.1317 59.4255 37.024 60.0149 37.024C60.6042 37.024 61.1369 37.1317 61.6129 37.347C62.1002 37.5623 62.5195 37.874 62.8709 38.282C63.2222 38.6787 63.4942 39.1603 63.6869 39.727C63.8795 40.2937 63.9759 40.9227 63.9759 41.614C63.9759 42.3167 63.8795 42.9513 63.6869 43.518C63.4942 44.0733 63.2222 44.555 62.8709 44.963C62.5195 45.3597 62.1002 45.6657 61.6129 45.881C61.1369 46.0963 60.6042 46.204 60.0149 46.204ZM60.0149 44.997C60.7515 44.997 61.3522 44.7703 61.8169 44.317C62.2815 43.8637 62.5139 43.1723 62.5139 42.243V40.985C62.5139 40.0557 62.2815 39.3643 61.8169 38.911C61.3522 38.4577 60.7515 38.231 60.0149 38.231C59.2782 38.231 58.6775 38.4577 58.2129 38.911C57.7482 39.3643 57.5159 40.0557 57.5159 40.985V42.243C57.5159 43.1723 57.7482 43.8637 58.2129 44.317C58.6775 44.7703 59.2782 44.997 60.0149 44.997ZM66.2126 37.228H67.5726V38.656H67.6406C67.8672 38.1007 68.1959 37.6927 68.6266 37.432C69.0686 37.16 69.5956 37.024 70.2076 37.024C70.7516 37.024 71.2446 37.1317 71.6866 37.347C72.1286 37.5623 72.5026 37.8683 72.8086 38.265C73.1259 38.6617 73.3639 39.1433 73.5226 39.71C73.6926 40.2767 73.7776 40.9113 73.7776 41.614C73.7776 42.3167 73.6926 42.9513 73.5226 43.518C73.3639 44.0847 73.1259 44.5663 72.8086 44.963C72.5026 45.3597 72.1286 45.6657 71.6866 45.881C71.2446 46.0963 70.7516 46.204 70.2076 46.204C69.0176 46.204 68.1619 45.66 67.6406 44.572H67.5726V49.4H66.2126V37.228ZM69.8336 44.98C70.6042 44.98 71.2106 44.742 71.6526 44.266C72.0946 43.7787 72.3156 43.144 72.3156 42.362V40.866C72.3156 40.084 72.0946 39.455 71.6526 38.979C71.2106 38.4917 70.6042 38.248 69.8336 38.248C69.5276 38.248 69.2329 38.2933 68.9496 38.384C68.6776 38.4633 68.4396 38.5767 68.2356 38.724C68.0316 38.8713 67.8672 39.0527 67.7426 39.268C67.6292 39.472 67.5726 39.693 67.5726 39.931V43.195C67.5726 43.4783 67.6292 43.7333 67.7426 43.96C67.8672 44.1753 68.0316 44.3623 68.2356 44.521C68.4396 44.6683 68.6776 44.7817 68.9496 44.861C69.2329 44.9403 69.5276 44.98 69.8336 44.98ZM79.3719 46.204C78.7712 46.204 78.2272 46.0963 77.7399 45.881C77.2639 45.6657 76.8502 45.3597 76.4989 44.963C76.1589 44.555 75.8926 44.0733 75.6999 43.518C75.5186 42.9513 75.4279 42.3167 75.4279 41.614C75.4279 40.9227 75.5186 40.2937 75.6999 39.727C75.8926 39.1603 76.1589 38.6787 76.4989 38.282C76.8502 37.874 77.2639 37.5623 77.7399 37.347C78.2272 37.1317 78.7712 37.024 79.3719 37.024C79.9612 37.024 80.4882 37.1317 80.9529 37.347C81.4176 37.5623 81.8142 37.8627 82.1429 38.248C82.4716 38.622 82.7209 39.0697 82.8909 39.591C83.0722 40.1123 83.1629 40.6847 83.1629 41.308V41.954H76.8559V42.362C76.8559 42.736 76.9126 43.0873 77.0259 43.416C77.1506 43.7333 77.3206 44.011 77.5359 44.249C77.7626 44.487 78.0346 44.674 78.3519 44.81C78.6806 44.946 79.0489 45.014 79.4569 45.014C80.0122 45.014 80.4939 44.8837 80.9019 44.623C81.3212 44.3623 81.6442 43.9883 81.8709 43.501L82.8399 44.198C82.5566 44.7987 82.1146 45.286 81.5139 45.66C80.9132 46.0227 80.1992 46.204 79.3719 46.204ZM79.3719 38.163C78.9979 38.163 78.6579 38.231 78.3519 38.367C78.0459 38.4917 77.7796 38.673 77.5529 38.911C77.3376 39.149 77.1676 39.4323 77.0429 39.761C76.9182 40.0783 76.8559 40.4297 76.8559 40.815V40.934H81.7009V40.747C81.7009 39.965 81.4856 39.3417 81.0549 38.877C80.6356 38.401 80.0746 38.163 79.3719 38.163ZM85.404 46V37.228H86.764V38.843H86.849C87.0077 38.4237 87.291 38.0497 87.699 37.721C88.107 37.3923 88.668 37.228 89.382 37.228H89.909V38.588H89.11C88.3733 38.588 87.7953 38.7297 87.376 39.013C86.968 39.285 86.764 39.6307 86.764 40.05V46H85.404ZM101.274 44.572H101.206C100.673 45.66 99.8174 46.204 98.6388 46.204C98.0948 46.204 97.6018 46.0963 97.1598 45.881C96.7178 45.6657 96.3381 45.3597 96.0208 44.963C95.7148 44.5663 95.4768 44.0847 95.3068 43.518C95.1481 42.9513 95.0688 42.3167 95.0688 41.614C95.0688 40.9113 95.1481 40.2767 95.3068 39.71C95.4768 39.1433 95.7148 38.6617 96.0208 38.265C96.3381 37.8683 96.7178 37.5623 97.1598 37.347C97.6018 37.1317 98.0948 37.024 98.6388 37.024C99.2508 37.024 99.7721 37.16 100.203 37.432C100.645 37.6927 100.979 38.1007 101.206 38.656H101.274V33.42H102.634V46H101.274V44.572ZM99.0128 44.98C99.3188 44.98 99.6078 44.9403 99.8798 44.861C100.163 44.7817 100.407 44.6683 100.611 44.521C100.815 44.3623 100.973 44.1753 101.087 43.96C101.211 43.7333 101.274 43.4783 101.274 43.195V39.931C101.274 39.693 101.211 39.472 101.087 39.268C100.973 39.0527 100.815 38.8713 100.611 38.724C100.407 38.5767 100.163 38.4633 99.8798 38.384C99.6078 38.2933 99.3188 38.248 99.0128 38.248C98.2421 38.248 97.6358 38.4917 97.1938 38.979C96.7518 39.455 96.5308 40.084 96.5308 40.866V42.362C96.5308 43.144 96.7518 43.7787 97.1938 44.266C97.6358 44.742 98.2421 44.98 99.0128 44.98ZM105.525 46V37.228H106.885V38.843H106.97C107.129 38.4237 107.412 38.0497 107.82 37.721C108.228 37.3923 108.789 37.228 109.503 37.228H110.03V38.588H109.231C108.494 38.588 107.916 38.7297 107.497 39.013C107.089 39.285 106.885 39.6307 106.885 40.05V46H105.525ZM112.447 35.171C112.153 35.171 111.937 35.103 111.801 34.967C111.677 34.8197 111.614 34.6327 111.614 34.406V34.185C111.614 33.9583 111.677 33.777 111.801 33.641C111.937 33.4937 112.153 33.42 112.447 33.42C112.742 33.42 112.952 33.4937 113.076 33.641C113.212 33.777 113.28 33.9583 113.28 34.185V34.406C113.28 34.6327 113.212 34.8197 113.076 34.967C112.952 35.103 112.742 35.171 112.447 35.171ZM111.767 37.228H113.127V46H111.767V37.228ZM117.955 46L114.878 37.228H116.238L117.768 41.58L118.72 44.572H118.805L119.757 41.58L121.321 37.228H122.63L119.536 46H117.955ZM127.55 46.204C126.949 46.204 126.405 46.0963 125.918 45.881C125.442 45.6657 125.028 45.3597 124.677 44.963C124.337 44.555 124.07 44.0733 123.878 43.518C123.696 42.9513 123.606 42.3167 123.606 41.614C123.606 40.9227 123.696 40.2937 123.878 39.727C124.07 39.1603 124.337 38.6787 124.677 38.282C125.028 37.874 125.442 37.5623 125.918 37.347C126.405 37.1317 126.949 37.024 127.55 37.024C128.139 37.024 128.666 37.1317 129.131 37.347C129.595 37.5623 129.992 37.8627 130.321 38.248C130.649 38.622 130.899 39.0697 131.069 39.591C131.25 40.1123 131.341 40.6847 131.341 41.308V41.954H125.034V42.362C125.034 42.736 125.09 43.0873 125.204 43.416C125.328 43.7333 125.498 44.011 125.714 44.249C125.94 44.487 126.212 44.674 126.53 44.81C126.858 44.946 127.227 45.014 127.635 45.014C128.19 45.014 128.672 44.8837 129.08 44.623C129.499 44.3623 129.822 43.9883 130.049 43.501L131.018 44.198C130.734 44.7987 130.292 45.286 129.692 45.66C129.091 46.0227 128.377 46.204 127.55 46.204ZM127.55 38.163C127.176 38.163 126.836 38.231 126.53 38.367C126.224 38.4917 125.957 38.673 125.731 38.911C125.515 39.149 125.345 39.4323 125.221 39.761C125.096 40.0783 125.034 40.4297 125.034 40.815V40.934H129.879V40.747C129.879 39.965 129.663 39.3417 129.233 38.877C128.813 38.401 128.252 38.163 127.55 38.163ZM133.582 46V37.228H134.942V38.656H135.01C135.225 38.1573 135.525 37.7607 135.911 37.466C136.307 37.1713 136.834 37.024 137.492 37.024C138.398 37.024 139.112 37.3187 139.634 37.908C140.166 38.486 140.433 39.3077 140.433 40.373V46H139.073V40.611C139.073 39.0357 138.41 38.248 137.084 38.248C136.812 38.248 136.545 38.282 136.285 38.35C136.035 38.418 135.809 38.52 135.605 38.656C135.401 38.792 135.236 38.9677 135.112 39.183C134.998 39.387 134.942 39.6307 134.942 39.914V46H133.582ZM147.261 33.42H148.621V38.656H148.689C148.916 38.1007 149.245 37.6927 149.675 37.432C150.117 37.16 150.644 37.024 151.256 37.024C151.8 37.024 152.293 37.1317 152.735 37.347C153.177 37.5623 153.551 37.8683 153.857 38.265C154.175 38.6617 154.413 39.1433 154.571 39.71C154.741 40.2767 154.826 40.9113 154.826 41.614C154.826 42.3167 154.741 42.9513 154.571 43.518C154.413 44.0847 154.175 44.5663 153.857 44.963C153.551 45.3597 153.177 45.6657 152.735 45.881C152.293 46.0963 151.8 46.204 151.256 46.204C150.066 46.204 149.211 45.66 148.689 44.572H148.621V46H147.261V33.42ZM150.882 44.98C151.653 44.98 152.259 44.742 152.701 44.266C153.143 43.7787 153.364 43.144 153.364 42.362V40.866C153.364 40.084 153.143 39.455 152.701 38.979C152.259 38.4917 151.653 38.248 150.882 38.248C150.576 38.248 150.282 38.2933 149.998 38.384C149.726 38.4633 149.488 38.5767 149.284 38.724C149.08 38.8713 148.916 39.0527 148.791 39.268C148.678 39.472 148.621 39.693 148.621 39.931V43.195C148.621 43.4783 148.678 43.7333 148.791 43.96C148.916 44.1753 149.08 44.3623 149.284 44.521C149.488 44.6683 149.726 44.7817 149.998 44.861C150.282 44.9403 150.576 44.98 150.882 44.98ZM162.446 37.228H163.789L159.862 48.04C159.76 48.3007 159.658 48.516 159.556 48.686C159.454 48.8673 159.329 49.009 159.182 49.111C159.034 49.213 158.847 49.2867 158.621 49.332C158.405 49.3773 158.139 49.4 157.822 49.4H157.125V48.21H158.502L159.165 46.34L155.884 37.228H157.244L159.352 43.195L159.76 44.623H159.845L160.321 43.195L162.446 37.228ZM172.805 46.204C172.193 46.204 171.643 46.0963 171.156 45.881C170.668 45.6657 170.255 45.3597 169.915 44.963C169.586 44.5663 169.331 44.0847 169.15 43.518C168.98 42.9513 168.895 42.3167 168.895 41.614C168.895 40.9113 168.98 40.2767 169.15 39.71C169.331 39.1433 169.586 38.6617 169.915 38.265C170.255 37.8683 170.668 37.5623 171.156 37.347C171.643 37.1317 172.193 37.024 172.805 37.024C173.677 37.024 174.374 37.2167 174.896 37.602C175.428 37.976 175.825 38.469 176.086 39.081L174.947 39.659C174.788 39.2057 174.527 38.8543 174.165 38.605C173.802 38.3557 173.349 38.231 172.805 38.231C172.397 38.231 172.04 38.299 171.734 38.435C171.428 38.5597 171.173 38.741 170.969 38.979C170.765 39.2057 170.612 39.4833 170.51 39.812C170.408 40.1293 170.357 40.4807 170.357 40.866V42.362C170.357 43.1327 170.561 43.7673 170.969 44.266C171.388 44.7533 172 44.997 172.805 44.997C173.904 44.997 174.697 44.487 175.185 43.467L176.171 44.13C175.887 44.7647 175.462 45.269 174.896 45.643C174.34 46.017 173.643 46.204 172.805 46.204ZM183.497 44.572H183.429C183.338 44.776 183.225 44.98 183.089 45.184C182.964 45.3767 182.805 45.5523 182.613 45.711C182.42 45.8583 182.188 45.9773 181.916 46.068C181.644 46.1587 181.326 46.204 180.964 46.204C180.057 46.204 179.337 45.915 178.805 45.337C178.272 44.7477 178.006 43.9203 178.006 42.855V37.228H179.366V42.617C179.366 44.1923 180.034 44.98 181.372 44.98C181.644 44.98 181.904 44.946 182.154 44.878C182.414 44.81 182.641 44.708 182.834 44.572C183.038 44.436 183.196 44.266 183.31 44.062C183.434 43.8467 183.497 43.5917 183.497 43.297V37.228H184.857V46H183.497V44.572ZM187.753 46V37.228H189.113V38.843H189.198C189.356 38.4237 189.64 38.0497 190.048 37.721C190.456 37.3923 191.017 37.228 191.731 37.228H192.258V38.588H191.459C190.722 38.588 190.144 38.7297 189.725 39.013C189.317 39.285 189.113 39.6307 189.113 40.05V46H187.753ZM194.675 35.171C194.38 35.171 194.165 35.103 194.029 34.967C193.904 34.8197 193.842 34.6327 193.842 34.406V34.185C193.842 33.9583 193.904 33.777 194.029 33.641C194.165 33.4937 194.38 33.42 194.675 33.42C194.969 33.42 195.179 33.4937 195.304 33.641C195.44 33.777 195.508 33.9583 195.508 34.185V34.406C195.508 34.6327 195.44 34.8197 195.304 34.967C195.179 35.103 194.969 35.171 194.675 35.171ZM193.995 37.228H195.355V46H193.995V37.228ZM201.56 46.204C200.97 46.204 200.432 46.0963 199.945 45.881C199.457 45.6657 199.038 45.3597 198.687 44.963C198.347 44.555 198.08 44.0733 197.888 43.518C197.695 42.9513 197.599 42.3167 197.599 41.614C197.599 40.9227 197.695 40.2937 197.888 39.727C198.08 39.1603 198.347 38.6787 198.687 38.282C199.038 37.874 199.457 37.5623 199.945 37.347C200.432 37.1317 200.97 37.024 201.56 37.024C202.149 37.024 202.682 37.1317 203.158 37.347C203.645 37.5623 204.064 37.874 204.416 38.282C204.767 38.6787 205.039 39.1603 205.232 39.727C205.424 40.2937 205.521 40.9227 205.521 41.614C205.521 42.3167 205.424 42.9513 205.232 43.518C205.039 44.0733 204.767 44.555 204.416 44.963C204.064 45.3597 203.645 45.6657 203.158 45.881C202.682 46.0963 202.149 46.204 201.56 46.204ZM201.56 44.997C202.296 44.997 202.897 44.7703 203.362 44.317C203.826 43.8637 204.059 43.1723 204.059 42.243V40.985C204.059 40.0557 203.826 39.3643 203.362 38.911C202.897 38.4577 202.296 38.231 201.56 38.231C200.823 38.231 200.222 38.4577 199.758 38.911C199.293 39.3643 199.061 40.0557 199.061 40.985V42.243C199.061 43.1723 199.293 43.8637 199.758 44.317C200.222 44.7703 200.823 44.997 201.56 44.997ZM210.393 46.204C209.577 46.204 208.891 46.051 208.336 45.745C207.792 45.4277 207.321 45.0083 206.925 44.487L207.894 43.705C208.234 44.1357 208.613 44.47 209.033 44.708C209.452 44.9347 209.939 45.048 210.495 45.048C211.073 45.048 211.52 44.9233 211.838 44.674C212.166 44.4247 212.331 44.0733 212.331 43.62C212.331 43.28 212.217 42.991 211.991 42.753C211.775 42.5037 211.379 42.3337 210.8 42.243L210.104 42.141C209.696 42.0843 209.322 41.9993 208.982 41.886C208.642 41.7613 208.341 41.6027 208.081 41.41C207.831 41.206 207.633 40.9567 207.486 40.662C207.35 40.3673 207.282 40.016 207.282 39.608C207.282 39.1773 207.361 38.8033 207.52 38.486C207.678 38.1573 207.894 37.8853 208.166 37.67C208.449 37.4547 208.783 37.296 209.169 37.194C209.554 37.0807 209.968 37.024 210.41 37.024C211.124 37.024 211.719 37.1487 212.195 37.398C212.682 37.6473 213.107 37.993 213.47 38.435L212.569 39.251C212.376 38.979 212.093 38.7353 211.719 38.52C211.345 38.2933 210.874 38.18 210.308 38.18C209.741 38.18 209.31 38.3047 209.016 38.554C208.732 38.792 208.591 39.1207 208.591 39.54C208.591 39.9707 208.732 40.2823 209.016 40.475C209.31 40.6677 209.73 40.8093 210.274 40.9L210.954 41.002C211.928 41.1493 212.62 41.4327 213.028 41.852C213.436 42.26 213.64 42.7983 213.64 43.467C213.64 44.317 213.351 44.9857 212.773 45.473C212.195 45.9603 211.401 46.204 210.393 46.204ZM216.722 35.171C216.427 35.171 216.212 35.103 216.076 34.967C215.951 34.8197 215.889 34.6327 215.889 34.406V34.185C215.889 33.9583 215.951 33.777 216.076 33.641C216.212 33.4937 216.427 33.42 216.722 33.42C217.016 33.42 217.226 33.4937 217.351 33.641C217.487 33.777 217.555 33.9583 217.555 34.185V34.406C217.555 34.6327 217.487 34.8197 217.351 34.967C217.226 35.103 217.016 35.171 216.722 35.171ZM216.042 37.228H217.402V46H216.042V37.228ZM222.23 46C221.754 46 221.391 45.8697 221.142 45.609C220.904 45.337 220.785 44.9857 220.785 44.555V38.418H219.34V37.228H220.156C220.45 37.228 220.649 37.1713 220.751 37.058C220.864 36.9333 220.921 36.7237 220.921 36.429V34.797H222.145V37.228H224.066V38.418H222.145V44.81H223.93V46H222.23ZM231.658 37.228H233.001L229.074 48.04C228.972 48.3007 228.87 48.516 228.768 48.686C228.666 48.8673 228.541 49.009 228.394 49.111C228.246 49.213 228.059 49.2867 227.833 49.332C227.617 49.3773 227.351 49.4 227.034 49.4H226.337V48.21H227.714L228.377 46.34L225.096 37.228H226.456L228.564 43.195L228.972 44.623H229.057L229.533 43.195L231.658 37.228ZM245.128 46C244.618 46 244.249 45.864 244.023 45.592C243.807 45.32 243.671 44.98 243.615 44.572H243.53C243.337 45.116 243.02 45.524 242.578 45.796C242.136 46.068 241.609 46.204 240.997 46.204C240.067 46.204 239.342 45.966 238.821 45.49C238.311 45.014 238.056 44.368 238.056 43.552C238.056 42.7247 238.356 42.09 238.957 41.648C239.569 41.206 240.515 40.985 241.796 40.985H243.53V40.118C243.53 39.4947 243.36 39.0187 243.02 38.69C242.68 38.3613 242.158 38.197 241.456 38.197C240.923 38.197 240.475 38.316 240.113 38.554C239.761 38.792 239.467 39.1093 239.229 39.506L238.413 38.741C238.651 38.265 239.03 37.8627 239.552 37.534C240.073 37.194 240.73 37.024 241.524 37.024C242.589 37.024 243.416 37.2847 244.006 37.806C244.595 38.3273 244.89 39.0527 244.89 39.982V44.81H245.893V46H245.128ZM241.218 45.048C241.558 45.048 241.869 45.0083 242.153 44.929C242.436 44.8497 242.68 44.7363 242.884 44.589C243.088 44.4417 243.246 44.2717 243.36 44.079C243.473 43.8863 243.53 43.6767 243.53 43.45V42.005H241.728C240.946 42.005 240.373 42.1183 240.011 42.345C239.659 42.5717 239.484 42.9003 239.484 43.331V43.688C239.484 44.1187 239.637 44.453 239.943 44.691C240.26 44.929 240.685 45.048 241.218 45.048ZM247.834 46V37.228H249.194V38.656H249.262C249.477 38.1573 249.777 37.7607 250.163 37.466C250.559 37.1713 251.086 37.024 251.744 37.024C252.65 37.024 253.364 37.3187 253.886 37.908C254.418 38.486 254.685 39.3077 254.685 40.373V46H253.325V40.611C253.325 39.0357 252.662 38.248 251.336 38.248C251.064 38.248 250.797 38.282 250.537 38.35C250.287 38.418 250.061 38.52 249.857 38.656C249.653 38.792 249.488 38.9677 249.364 39.183C249.25 39.387 249.194 39.6307 249.194 39.914V46H247.834ZM263.106 44.572H263.038C262.505 45.66 261.649 46.204 260.471 46.204C259.927 46.204 259.434 46.0963 258.992 45.881C258.55 45.6657 258.17 45.3597 257.853 44.963C257.547 44.5663 257.309 44.0847 257.139 43.518C256.98 42.9513 256.901 42.3167 256.901 41.614C256.901 40.9113 256.98 40.2767 257.139 39.71C257.309 39.1433 257.547 38.6617 257.853 38.265C258.17 37.8683 258.55 37.5623 258.992 37.347C259.434 37.1317 259.927 37.024 260.471 37.024C261.083 37.024 261.604 37.16 262.035 37.432C262.477 37.6927 262.811 38.1007 263.038 38.656H263.106V33.42H264.466V46H263.106V44.572ZM260.845 44.98C261.151 44.98 261.44 44.9403 261.712 44.861C261.995 44.7817 262.239 44.6683 262.443 44.521C262.647 44.3623 262.805 44.1753 262.919 43.96C263.043 43.7333 263.106 43.4783 263.106 43.195V39.931C263.106 39.693 263.043 39.472 262.919 39.268C262.805 39.0527 262.647 38.8713 262.443 38.724C262.239 38.5767 261.995 38.4633 261.712 38.384C261.44 38.2933 261.151 38.248 260.845 38.248C260.074 38.248 259.468 38.4917 259.026 38.979C258.584 39.455 258.363 40.084 258.363 40.866V42.362C258.363 43.144 258.584 43.7787 259.026 44.266C259.468 44.742 260.074 44.98 260.845 44.98ZM17.383 68C16.907 68 16.5443 67.8697 16.295 67.609C16.057 67.337 15.938 66.9857 15.938 66.555V60.418H14.493V59.228H15.309C15.6037 59.228 15.802 59.1713 15.904 59.058C16.0173 58.9333 16.074 58.7237 16.074 58.429V56.797H17.298V59.228H19.219V60.418H17.298V66.81H19.083V68H17.383ZM21.405 55.42H22.765V60.656H22.833C23.0483 60.1573 23.3486 59.7607 23.734 59.466C24.1306 59.1713 24.6576 59.024 25.315 59.024C26.2216 59.024 26.9356 59.3187 27.457 59.908C27.9896 60.486 28.256 61.3077 28.256 62.373V68H26.896V62.611C26.896 61.0357 26.233 60.248 24.907 60.248C24.635 60.248 24.3686 60.282 24.108 60.35C23.8586 60.418 23.632 60.52 23.428 60.656C23.224 60.792 23.0596 60.9677 22.935 61.183C22.8216 61.387 22.765 61.6307 22.765 61.914V68H21.405V55.42ZM34.3651 68.204C33.7644 68.204 33.2204 68.0963 32.7331 67.881C32.2571 67.6657 31.8434 67.3597 31.4921 66.963C31.1521 66.555 30.8857 66.0733 30.6931 65.518C30.5117 64.9513 30.4211 64.3167 30.4211 63.614C30.4211 62.9227 30.5117 62.2937 30.6931 61.727C30.8857 61.1603 31.1521 60.6787 31.4921 60.282C31.8434 59.874 32.2571 59.5623 32.7331 59.347C33.2204 59.1317 33.7644 59.024 34.3651 59.024C34.9544 59.024 35.4814 59.1317 35.9461 59.347C36.4107 59.5623 36.8074 59.8627 37.1361 60.248C37.4647 60.622 37.7141 61.0697 37.8841 61.591C38.0654 62.1123 38.1561 62.6847 38.1561 63.308V63.954H31.8491V64.362C31.8491 64.736 31.9057 65.0873 32.0191 65.416C32.1437 65.7333 32.3137 66.011 32.5291 66.249C32.7557 66.487 33.0277 66.674 33.3451 66.81C33.6737 66.946 34.0421 67.014 34.4501 67.014C35.0054 67.014 35.4871 66.8837 35.8951 66.623C36.3144 66.3623 36.6374 65.9883 36.8641 65.501L37.8331 66.198C37.5497 66.7987 37.1077 67.286 36.5071 67.66C35.9064 68.0227 35.1924 68.204 34.3651 68.204ZM34.3651 60.163C33.9911 60.163 33.6511 60.231 33.3451 60.367C33.0391 60.4917 32.7727 60.673 32.5461 60.911C32.3307 61.149 32.1607 61.4323 32.0361 61.761C31.9114 62.0783 31.8491 62.4297 31.8491 62.815V62.934H36.6941V62.747C36.6941 61.965 36.4787 61.3417 36.0481 60.877C35.6287 60.401 35.0677 60.163 34.3651 60.163ZM44.4147 59.228H45.7747V60.656H45.8427C46.0694 60.1007 46.3981 59.6927 46.8287 59.432C47.2707 59.16 47.7977 59.024 48.4097 59.024C48.9537 59.024 49.4467 59.1317 49.8887 59.347C50.3307 59.5623 50.7047 59.8683 51.0107 60.265C51.3281 60.6617 51.5661 61.1433 51.7247 61.71C51.8947 62.2767 51.9797 62.9113 51.9797 63.614C51.9797 64.3167 51.8947 64.9513 51.7247 65.518C51.5661 66.0847 51.3281 66.5663 51.0107 66.963C50.7047 67.3597 50.3307 67.6657 49.8887 67.881C49.4467 68.0963 48.9537 68.204 48.4097 68.204C47.2197 68.204 46.3641 67.66 45.8427 66.572H45.7747V71.4H44.4147V59.228ZM48.0357 66.98C48.8064 66.98 49.4127 66.742 49.8547 66.266C50.2967 65.7787 50.5177 65.144 50.5177 64.362V62.866C50.5177 62.084 50.2967 61.455 49.8547 60.979C49.4127 60.4917 48.8064 60.248 48.0357 60.248C47.7297 60.248 47.4351 60.2933 47.1517 60.384C46.8797 60.4633 46.6417 60.5767 46.4377 60.724C46.2337 60.8713 46.0694 61.0527 45.9447 61.268C45.8314 61.472 45.7747 61.693 45.7747 61.931V65.195C45.7747 65.4783 45.8314 65.7333 45.9447 65.96C46.0694 66.1753 46.2337 66.3623 46.4377 66.521C46.6417 66.6683 46.8797 66.7817 47.1517 66.861C47.4351 66.9403 47.7297 66.98 48.0357 66.98ZM60.6511 68C60.1411 68 59.7727 67.864 59.5461 67.592C59.3307 67.32 59.1947 66.98 59.1381 66.572H59.0531C58.8604 67.116 58.5431 67.524 58.1011 67.796C57.6591 68.068 57.1321 68.204 56.5201 68.204C55.5907 68.204 54.8654 67.966 54.3441 67.49C53.8341 67.014 53.5791 66.368 53.5791 65.552C53.5791 64.7247 53.8794 64.09 54.4801 63.648C55.0921 63.206 56.0384 62.985 57.3191 62.985H59.0531V62.118C59.0531 61.4947 58.8831 61.0187 58.5431 60.69C58.2031 60.3613 57.6817 60.197 56.9791 60.197C56.4464 60.197 55.9987 60.316 55.6361 60.554C55.2847 60.792 54.9901 61.1093 54.7521 61.506L53.9361 60.741C54.1741 60.265 54.5537 59.8627 55.0751 59.534C55.5964 59.194 56.2537 59.024 57.0471 59.024C58.1124 59.024 58.9397 59.2847 59.5291 59.806C60.1184 60.3273 60.4131 61.0527 60.4131 61.982V66.81H61.4161V68H60.6511ZM56.7411 67.048C57.0811 67.048 57.3927 67.0083 57.6761 66.929C57.9594 66.8497 58.2031 66.7363 58.4071 66.589C58.6111 66.4417 58.7697 66.2717 58.8831 66.079C58.9964 65.8863 59.0531 65.6767 59.0531 65.45V64.005H57.2511C56.4691 64.005 55.8967 64.1183 55.5341 64.345C55.1827 64.5717 55.0071 64.9003 55.0071 65.331V65.688C55.0071 66.1187 55.1601 66.453 55.4661 66.691C55.7834 66.929 56.2084 67.048 56.7411 67.048ZM65.9921 68.204C65.1761 68.204 64.4904 68.051 63.9351 67.745C63.3911 67.4277 62.9208 67.0083 62.5241 66.487L63.4931 65.705C63.8331 66.1357 64.2128 66.47 64.6321 66.708C65.0514 66.9347 65.5388 67.048 66.0941 67.048C66.6721 67.048 67.1198 66.9233 67.4371 66.674C67.7658 66.4247 67.9301 66.0733 67.9301 65.62C67.9301 65.28 67.8168 64.991 67.5901 64.753C67.3748 64.5037 66.9781 64.3337 66.4001 64.243L65.7031 64.141C65.2951 64.0843 64.9211 63.9993 64.5811 63.886C64.2411 63.7613 63.9408 63.6027 63.6801 63.41C63.4308 63.206 63.2324 62.9567 63.0851 62.662C62.9491 62.3673 62.8811 62.016 62.8811 61.608C62.8811 61.1773 62.9604 60.8033 63.1191 60.486C63.2778 60.1573 63.4931 59.8853 63.7651 59.67C64.0484 59.4547 64.3828 59.296 64.7681 59.194C65.1534 59.0807 65.5671 59.024 66.0091 59.024C66.7231 59.024 67.3181 59.1487 67.7941 59.398C68.2814 59.6473 68.7064 59.993 69.0691 60.435L68.1681 61.251C67.9754 60.979 67.6921 60.7353 67.3181 60.52C66.9441 60.2933 66.4738 60.18 65.9071 60.18C65.3404 60.18 64.9098 60.3047 64.6151 60.554C64.3318 60.792 64.1901 61.1207 64.1901 61.54C64.1901 61.9707 64.3318 62.2823 64.6151 62.475C64.9098 62.6677 65.3291 62.8093 65.8731 62.9L66.5531 63.002C67.5278 63.1493 68.2191 63.4327 68.6271 63.852C69.0351 64.26 69.2391 64.7983 69.2391 65.467C69.2391 66.317 68.9501 66.9857 68.3721 67.473C67.7941 67.9603 67.0008 68.204 65.9921 68.204ZM74.1767 68.204C73.3607 68.204 72.675 68.051 72.1197 67.745C71.5757 67.4277 71.1053 67.0083 70.7087 66.487L71.6777 65.705C72.0177 66.1357 72.3973 66.47 72.8167 66.708C73.236 66.9347 73.7233 67.048 74.2787 67.048C74.8567 67.048 75.3043 66.9233 75.6217 66.674C75.9503 66.4247 76.1147 66.0733 76.1147 65.62C76.1147 65.28 76.0013 64.991 75.7747 64.753C75.5593 64.5037 75.1627 64.3337 74.5847 64.243L73.8877 64.141C73.4797 64.0843 73.1057 63.9993 72.7657 63.886C72.4257 63.7613 72.1253 63.6027 71.8647 63.41C71.6153 63.206 71.417 62.9567 71.2697 62.662C71.1337 62.3673 71.0657 62.016 71.0657 61.608C71.0657 61.1773 71.145 60.8033 71.3037 60.486C71.4623 60.1573 71.6777 59.8853 71.9497 59.67C72.233 59.4547 72.5673 59.296 72.9527 59.194C73.338 59.0807 73.7517 59.024 74.1937 59.024C74.9077 59.024 75.5027 59.1487 75.9787 59.398C76.466 59.6473 76.891 59.993 77.2537 60.435L76.3527 61.251C76.16 60.979 75.8767 60.7353 75.5027 60.52C75.1287 60.2933 74.6583 60.18 74.0917 60.18C73.525 60.18 73.0943 60.3047 72.7997 60.554C72.5163 60.792 72.3747 61.1207 72.3747 61.54C72.3747 61.9707 72.5163 62.2823 72.7997 62.475C73.0943 62.6677 73.5137 62.8093 74.0577 62.9L74.7377 63.002C75.7123 63.1493 76.4037 63.4327 76.8117 63.852C77.2197 64.26 77.4237 64.7983 77.4237 65.467C77.4237 66.317 77.1347 66.9857 76.5567 67.473C75.9787 67.9603 75.1853 68.204 74.1767 68.204ZM80.5059 57.171C80.2112 57.171 79.9959 57.103 79.8599 56.967C79.7352 56.8197 79.6729 56.6327 79.6729 56.406V56.185C79.6729 55.9583 79.7352 55.777 79.8599 55.641C79.9959 55.4937 80.2112 55.42 80.5059 55.42C80.8005 55.42 81.0102 55.4937 81.1349 55.641C81.2709 55.777 81.3389 55.9583 81.3389 56.185V56.406C81.3389 56.6327 81.2709 56.8197 81.1349 56.967C81.0102 57.103 80.8005 57.171 80.5059 57.171ZM79.8259 59.228H81.1859V68H79.8259V59.228ZM87.3909 68.204C86.8015 68.204 86.2632 68.0963 85.7759 67.881C85.2885 67.6657 84.8692 67.3597 84.5179 66.963C84.1779 66.555 83.9115 66.0733 83.7189 65.518C83.5262 64.9513 83.4299 64.3167 83.4299 63.614C83.4299 62.9227 83.5262 62.2937 83.7189 61.727C83.9115 61.1603 84.1779 60.6787 84.5179 60.282C84.8692 59.874 85.2885 59.5623 85.7759 59.347C86.2632 59.1317 86.8015 59.024 87.3909 59.024C87.9802 59.024 88.5129 59.1317 88.9889 59.347C89.4762 59.5623 89.8955 59.874 90.2469 60.282C90.5982 60.6787 90.8702 61.1603 91.0629 61.727C91.2555 62.2937 91.3519 62.9227 91.3519 63.614C91.3519 64.3167 91.2555 64.9513 91.0629 65.518C90.8702 66.0733 90.5982 66.555 90.2469 66.963C89.8955 67.3597 89.4762 67.6657 88.9889 67.881C88.5129 68.0963 87.9802 68.204 87.3909 68.204ZM87.3909 66.997C88.1275 66.997 88.7282 66.7703 89.1929 66.317C89.6575 65.8637 89.8899 65.1723 89.8899 64.243V62.985C89.8899 62.0557 89.6575 61.3643 89.1929 60.911C88.7282 60.4577 88.1275 60.231 87.3909 60.231C86.6542 60.231 86.0535 60.4577 85.5889 60.911C85.1242 61.3643 84.8919 62.0557 84.8919 62.985V64.243C84.8919 65.1723 85.1242 65.8637 85.5889 66.317C86.0535 66.7703 86.6542 66.997 87.3909 66.997ZM93.5886 68V59.228H94.9486V60.656H95.0166C95.2319 60.1573 95.5322 59.7607 95.9176 59.466C96.3142 59.1713 96.8412 59.024 97.4986 59.024C98.4052 59.024 99.1192 59.3187 99.6406 59.908C100.173 60.486 100.44 61.3077 100.44 62.373V68H99.0796V62.611C99.0796 61.0357 98.4166 60.248 97.0906 60.248C96.8186 60.248 96.5522 60.282 96.2916 60.35C96.0422 60.418 95.8156 60.52 95.6116 60.656C95.4076 60.792 95.2432 60.9677 95.1186 61.183C95.0052 61.387 94.9486 61.6307 94.9486 61.914V68H93.5886ZM109.206 68C108.73 68 108.368 67.8697 108.118 67.609C107.88 67.337 107.761 66.9857 107.761 66.555V60.418H106.316V59.228H107.132C107.427 59.228 107.625 59.1713 107.727 59.058C107.841 58.9333 107.897 58.7237 107.897 58.429V56.797H109.121V59.228H111.042V60.418H109.121V66.81H110.906V68H109.206ZM116.477 68.204C115.887 68.204 115.349 68.0963 114.862 67.881C114.374 67.6657 113.955 67.3597 113.604 66.963C113.264 66.555 112.997 66.0733 112.805 65.518C112.612 64.9513 112.516 64.3167 112.516 63.614C112.516 62.9227 112.612 62.2937 112.805 61.727C112.997 61.1603 113.264 60.6787 113.604 60.282C113.955 59.874 114.374 59.5623 114.862 59.347C115.349 59.1317 115.887 59.024 116.477 59.024C117.066 59.024 117.599 59.1317 118.075 59.347C118.562 59.5623 118.981 59.874 119.333 60.282C119.684 60.6787 119.956 61.1603 120.149 61.727C120.341 62.2937 120.438 62.9227 120.438 63.614C120.438 64.3167 120.341 64.9513 120.149 65.518C119.956 66.0733 119.684 66.555 119.333 66.963C118.981 67.3597 118.562 67.6657 118.075 67.881C117.599 68.0963 117.066 68.204 116.477 68.204ZM116.477 66.997C117.213 66.997 117.814 66.7703 118.279 66.317C118.743 65.8637 118.976 65.1723 118.976 64.243V62.985C118.976 62.0557 118.743 61.3643 118.279 60.911C117.814 60.4577 117.213 60.231 116.477 60.231C115.74 60.231 115.139 60.4577 114.675 60.911C114.21 61.3643 113.978 62.0557 113.978 62.985V64.243C113.978 65.1723 114.21 65.8637 114.675 66.317C115.139 66.7703 115.74 66.997 116.477 66.997ZM128.137 68C127.661 68 127.298 67.8697 127.049 67.609C126.811 67.337 126.692 66.997 126.692 66.589V55.42H128.052V66.81H129.344V68H128.137ZM134.622 68.204C134.021 68.204 133.477 68.0963 132.99 67.881C132.514 67.6657 132.1 67.3597 131.749 66.963C131.409 66.555 131.143 66.0733 130.95 65.518C130.769 64.9513 130.678 64.3167 130.678 63.614C130.678 62.9227 130.769 62.2937 130.95 61.727C131.143 61.1603 131.409 60.6787 131.749 60.282C132.1 59.874 132.514 59.5623 132.99 59.347C133.477 59.1317 134.021 59.024 134.622 59.024C135.211 59.024 135.738 59.1317 136.203 59.347C136.668 59.5623 137.064 59.8627 137.393 60.248C137.722 60.622 137.971 61.0697 138.141 61.591C138.322 62.1123 138.413 62.6847 138.413 63.308V63.954H132.106V64.362C132.106 64.736 132.163 65.0873 132.276 65.416C132.401 65.7333 132.571 66.011 132.786 66.249C133.013 66.487 133.285 66.674 133.602 66.81C133.931 66.946 134.299 67.014 134.707 67.014C135.262 67.014 135.744 66.8837 136.152 66.623C136.571 66.3623 136.894 65.9883 137.121 65.501L138.09 66.198C137.807 66.7987 137.365 67.286 136.764 67.66C136.163 68.0227 135.449 68.204 134.622 68.204ZM134.622 60.163C134.248 60.163 133.908 60.231 133.602 60.367C133.296 60.4917 133.03 60.673 132.803 60.911C132.588 61.149 132.418 61.4323 132.293 61.761C132.168 62.0783 132.106 62.4297 132.106 62.815V62.934H136.951V62.747C136.951 61.965 136.736 61.3417 136.305 60.877C135.886 60.401 135.325 60.163 134.622 60.163ZM147.029 68C146.519 68 146.151 67.864 145.924 67.592C145.709 67.32 145.573 66.98 145.516 66.572H145.431C145.238 67.116 144.921 67.524 144.479 67.796C144.037 68.068 143.51 68.204 142.898 68.204C141.969 68.204 141.243 67.966 140.722 67.49C140.212 67.014 139.957 66.368 139.957 65.552C139.957 64.7247 140.257 64.09 140.858 63.648C141.47 63.206 142.416 62.985 143.697 62.985H145.431V62.118C145.431 61.4947 145.261 61.0187 144.921 60.69C144.581 60.3613 144.06 60.197 143.357 60.197C142.824 60.197 142.377 60.316 142.014 60.554C141.663 60.792 141.368 61.1093 141.13 61.506L140.314 60.741C140.552 60.265 140.932 59.8627 141.453 59.534C141.974 59.194 142.632 59.024 143.425 59.024C144.49 59.024 145.318 59.2847 145.907 59.806C146.496 60.3273 146.791 61.0527 146.791 61.982V66.81H147.794V68H147.029ZM143.119 67.048C143.459 67.048 143.771 67.0083 144.054 66.929C144.337 66.8497 144.581 66.7363 144.785 66.589C144.989 66.4417 145.148 66.2717 145.261 66.079C145.374 65.8863 145.431 65.6767 145.431 65.45V64.005H143.629C142.847 64.005 142.275 64.1183 141.912 64.345C141.561 64.5717 141.385 64.9003 141.385 65.331V65.688C141.385 66.1187 141.538 66.453 141.844 66.691C142.161 66.929 142.586 67.048 143.119 67.048ZM149.735 68V59.228H151.095V60.843H151.18C151.339 60.4237 151.622 60.0497 152.03 59.721C152.438 59.3923 152.999 59.228 153.713 59.228H154.24V60.588H153.441C152.704 60.588 152.126 60.7297 151.707 61.013C151.299 61.285 151.095 61.6307 151.095 62.05V68H149.735ZM155.977 68V59.228H157.337V60.656H157.405C157.621 60.1573 157.921 59.7607 158.306 59.466C158.703 59.1713 159.23 59.024 159.887 59.024C160.794 59.024 161.508 59.3187 162.029 59.908C162.562 60.486 162.828 61.3077 162.828 62.373V68H161.468V62.611C161.468 61.0357 160.805 60.248 159.479 60.248C159.207 60.248 158.941 60.282 158.68 60.35C158.431 60.418 158.204 60.52 158 60.656C157.796 60.792 157.632 60.9677 157.507 61.183C157.394 61.387 157.337 61.6307 157.337 61.914V68H155.977ZM176.032 68C175.522 68 175.154 67.864 174.927 67.592C174.712 67.32 174.576 66.98 174.519 66.572H174.434C174.241 67.116 173.924 67.524 173.482 67.796C173.04 68.068 172.513 68.204 171.901 68.204C170.972 68.204 170.246 67.966 169.725 67.49C169.215 67.014 168.96 66.368 168.96 65.552C168.96 64.7247 169.26 64.09 169.861 63.648C170.473 63.206 171.419 62.985 172.7 62.985H174.434V62.118C174.434 61.4947 174.264 61.0187 173.924 60.69C173.584 60.3613 173.063 60.197 172.36 60.197C171.827 60.197 171.38 60.316 171.017 60.554C170.666 60.792 170.371 61.1093 170.133 61.506L169.317 60.741C169.555 60.265 169.935 59.8627 170.456 59.534C170.977 59.194 171.635 59.024 172.428 59.024C173.493 59.024 174.321 59.2847 174.91 59.806C175.499 60.3273 175.794 61.0527 175.794 61.982V66.81H176.797V68H176.032ZM172.122 67.048C172.462 67.048 172.774 67.0083 173.057 66.929C173.34 66.8497 173.584 66.7363 173.788 66.589C173.992 66.4417 174.151 66.2717 174.264 66.079C174.377 65.8863 174.434 65.6767 174.434 65.45V64.005H172.632C171.85 64.005 171.278 64.1183 170.915 64.345C170.564 64.5717 170.388 64.9003 170.388 65.331V65.688C170.388 66.1187 170.541 66.453 170.847 66.691C171.164 66.929 171.589 67.048 172.122 67.048ZM178.738 68V59.228H180.098V60.656H180.166C180.381 60.1573 180.682 59.7607 181.067 59.466C181.464 59.1713 181.991 59.024 182.648 59.024C183.555 59.024 184.269 59.3187 184.79 59.908C185.323 60.486 185.589 61.3077 185.589 62.373V68H184.229V62.611C184.229 61.0357 183.566 60.248 182.24 60.248C181.968 60.248 181.702 60.282 181.441 60.35C181.192 60.418 180.965 60.52 180.761 60.656C180.557 60.792 180.393 60.9677 180.268 61.183C180.155 61.387 180.098 61.6307 180.098 61.914V68H178.738ZM194.01 66.572H193.942C193.409 67.66 192.554 68.204 191.375 68.204C190.831 68.204 190.338 68.0963 189.896 67.881C189.454 67.6657 189.074 67.3597 188.757 66.963C188.451 66.5663 188.213 66.0847 188.043 65.518C187.884 64.9513 187.805 64.3167 187.805 63.614C187.805 62.9113 187.884 62.2767 188.043 61.71C188.213 61.1433 188.451 60.6617 188.757 60.265C189.074 59.8683 189.454 59.5623 189.896 59.347C190.338 59.1317 190.831 59.024 191.375 59.024C191.987 59.024 192.508 59.16 192.939 59.432C193.381 59.6927 193.715 60.1007 193.942 60.656H194.01V55.42H195.37V68H194.01V66.572ZM191.749 66.98C192.055 66.98 192.344 66.9403 192.616 66.861C192.899 66.7817 193.143 66.6683 193.347 66.521C193.551 66.3623 193.71 66.1753 193.823 65.96C193.948 65.7333 194.01 65.4783 194.01 65.195V61.931C194.01 61.693 193.948 61.472 193.823 61.268C193.71 61.0527 193.551 60.8713 193.347 60.724C193.143 60.5767 192.899 60.4633 192.616 60.384C192.344 60.2933 192.055 60.248 191.749 60.248C190.978 60.248 190.372 60.4917 189.93 60.979C189.488 61.455 189.267 62.084 189.267 62.866V64.362C189.267 65.144 189.488 65.7787 189.93 66.266C190.372 66.742 190.978 66.98 191.749 66.98ZM204.217 68C203.741 68 203.378 67.8697 203.129 67.609C202.891 67.337 202.772 66.9857 202.772 66.555V60.418H201.327V59.228H202.143C202.438 59.228 202.636 59.1713 202.738 59.058C202.851 58.9333 202.908 58.7237 202.908 58.429V56.797H204.132V59.228H206.053V60.418H204.132V66.81H205.917V68H204.217ZM211.488 68.204C210.898 68.204 210.36 68.0963 209.873 67.881C209.385 67.6657 208.966 67.3597 208.615 66.963C208.275 66.555 208.008 66.0733 207.816 65.518C207.623 64.9513 207.527 64.3167 207.527 63.614C207.527 62.9227 207.623 62.2937 207.816 61.727C208.008 61.1603 208.275 60.6787 208.615 60.282C208.966 59.874 209.385 59.5623 209.873 59.347C210.36 59.1317 210.898 59.024 211.488 59.024C212.077 59.024 212.61 59.1317 213.086 59.347C213.573 59.5623 213.992 59.874 214.344 60.282C214.695 60.6787 214.967 61.1603 215.16 61.727C215.352 62.2937 215.449 62.9227 215.449 63.614C215.449 64.3167 215.352 64.9513 215.16 65.518C214.967 66.0733 214.695 66.555 214.344 66.963C213.992 67.3597 213.573 67.6657 213.086 67.881C212.61 68.0963 212.077 68.204 211.488 68.204ZM211.488 66.997C212.224 66.997 212.825 66.7703 213.29 66.317C213.754 65.8637 213.987 65.1723 213.987 64.243V62.985C213.987 62.0557 213.754 61.3643 213.29 60.911C212.825 60.4577 212.224 60.231 211.488 60.231C210.751 60.231 210.15 60.4577 209.686 60.911C209.221 61.3643 208.989 62.0557 208.989 62.985V64.243C208.989 65.1723 209.221 65.8637 209.686 66.317C210.15 66.7703 210.751 66.997 211.488 66.997ZM221.703 55.42H223.063V60.656H223.131C223.346 60.1573 223.646 59.7607 224.032 59.466C224.428 59.1713 224.955 59.024 225.613 59.024C226.519 59.024 227.233 59.3187 227.755 59.908C228.287 60.486 228.554 61.3077 228.554 62.373V68H227.194V62.611C227.194 61.0357 226.531 60.248 225.205 60.248C224.933 60.248 224.666 60.282 224.406 60.35C224.156 60.418 223.93 60.52 223.726 60.656C223.522 60.792 223.357 60.9677 223.233 61.183C223.119 61.387 223.063 61.6307 223.063 61.914V68H221.703V55.42ZM234.663 68.204C234.062 68.204 233.518 68.0963 233.031 67.881C232.555 67.6657 232.141 67.3597 231.79 66.963C231.45 66.555 231.184 66.0733 230.991 65.518C230.81 64.9513 230.719 64.3167 230.719 63.614C230.719 62.9227 230.81 62.2937 230.991 61.727C231.184 61.1603 231.45 60.6787 231.79 60.282C232.141 59.874 232.555 59.5623 233.031 59.347C233.518 59.1317 234.062 59.024 234.663 59.024C235.252 59.024 235.779 59.1317 236.244 59.347C236.709 59.5623 237.105 59.8627 237.434 60.248C237.763 60.622 238.012 61.0697 238.182 61.591C238.363 62.1123 238.454 62.6847 238.454 63.308V63.954H232.147V64.362C232.147 64.736 232.204 65.0873 232.317 65.416C232.442 65.7333 232.612 66.011 232.827 66.249C233.054 66.487 233.326 66.674 233.643 66.81C233.972 66.946 234.34 67.014 234.748 67.014C235.303 67.014 235.785 66.8837 236.193 66.623C236.612 66.3623 236.935 65.9883 237.162 65.501L238.131 66.198C237.848 66.7987 237.406 67.286 236.805 67.66C236.204 68.0227 235.49 68.204 234.663 68.204ZM234.663 60.163C234.289 60.163 233.949 60.231 233.643 60.367C233.337 60.4917 233.071 60.673 232.844 60.911C232.629 61.149 232.459 61.4323 232.334 61.761C232.209 62.0783 232.147 62.4297 232.147 62.815V62.934H236.992V62.747C236.992 61.965 236.777 61.3417 236.346 60.877C235.927 60.401 235.366 60.163 234.663 60.163ZM242.14 68C241.664 68 241.301 67.8697 241.052 67.609C240.814 67.337 240.695 66.997 240.695 66.589V55.42H242.055V66.81H243.347V68H242.14ZM245.327 59.228H246.687V60.656H246.755C246.982 60.1007 247.31 59.6927 247.741 59.432C248.183 59.16 248.71 59.024 249.322 59.024C249.866 59.024 250.359 59.1317 250.801 59.347C251.243 59.5623 251.617 59.8683 251.923 60.265C252.24 60.6617 252.478 61.1433 252.637 61.71C252.807 62.2767 252.892 62.9113 252.892 63.614C252.892 64.3167 252.807 64.9513 252.637 65.518C252.478 66.0847 252.24 66.5663 251.923 66.963C251.617 67.3597 251.243 67.6657 250.801 67.881C250.359 68.0963 249.866 68.204 249.322 68.204C248.132 68.204 247.276 67.66 246.755 66.572H246.687V71.4H245.327V59.228ZM248.948 66.98C249.719 66.98 250.325 66.742 250.767 66.266C251.209 65.7787 251.43 65.144 251.43 64.362V62.866C251.43 62.084 251.209 61.455 250.767 60.979C250.325 60.4917 249.719 60.248 248.948 60.248C248.642 60.248 248.347 60.2933 248.064 60.384C247.792 60.4633 247.554 60.5767 247.35 60.724C247.146 60.8713 246.982 61.0527 246.857 61.268C246.744 61.472 246.687 61.693 246.687 61.931V65.195C246.687 65.4783 246.744 65.7333 246.857 65.96C246.982 66.1753 247.146 66.3623 247.35 66.521C247.554 66.6683 247.792 66.7817 248.064 66.861C248.347 66.9403 248.642 66.98 248.948 66.98ZM255.723 68.204C255.36 68.204 255.094 68.1133 254.924 67.932C254.765 67.7507 254.686 67.5127 254.686 67.218V66.997C254.686 66.7023 254.765 66.4643 254.924 66.283C255.094 66.1017 255.36 66.011 255.723 66.011C256.086 66.011 256.346 66.1017 256.505 66.283C256.675 66.4643 256.76 66.7023 256.76 66.997V67.218C256.76 67.5127 256.675 67.7507 256.505 67.932C256.346 68.1133 256.086 68.204 255.723 68.204Z" fill="white"/>
</svg>
